# xmcd
#
# Track frame offsets:
#	150
#	17874
#	35643
#	51120
#	61485
#	75389
#	85251
#	99948
#	111737
#	127334
#	138836
#	148336
#	163959
#
# Disc length: 2328 seconds
#
# Revision: 1
# Processed by: cddbd v1.5.2PL0 Copyright (c) Steve Scherf et al.
# Submitted via: audiograbber 1.83.01
#
DISCID=bf09160d
DTITLE=Pushin Rope - Murderous Songs of Despair
DYEAR=2008
DGENRE=
TTITLE0=Reign in hell
TTITLE1=Evil in His Eyes
TTITLE2=Ditch Digger
TTITLE3=Pushin' Dope
TTITLE4=Hellbound Man
TTITLE5=Devil's Son
TTITLE6=Murder in This Town
TTITLE7=Up All Night
TTITLE8=Cuttin' Moon
TTITLE9=Evil Little Woman
TTITLE10=Little Vicky
TTITLE11=The Hanging od Charlie Birger
TTITLE12=Just Me
EXTD=San Diego
EXTT0=
EXTT1=
EXTT2=
EXTT3=
EXTT4=
EXTT5=
EXTT6=
EXTT7=
EXTT8=
EXTT9=
EXTT10=
EXTT11=
EXTT12=
PLAYORDER=
